<svg width="111" height="35" viewBox="0 0 111 35" fill="none" xmlns="http://www.w3.org/2000/svg">
<path d="M0 25.8615V2.50937H8.60863C9.73006 2.50937 10.8295 2.60831 11.907 2.80621C12.9844 2.98212 14.0179 3.33394 15.0074 3.86168C16.7665 4.76322 18.0858 6.09354 18.9654 7.85265C19.8669 9.61176 20.3177 11.7337 20.3177 14.2184C20.3177 17.9785 19.3392 20.859 17.3822 22.86C15.4472 24.861 12.5996 25.8615 8.83951 25.8615H0ZM8.87249 21.6396C9.18034 21.6396 9.51017 21.6177 9.86199 21.5737C10.2138 21.5297 10.5656 21.4747 10.9175 21.4088C11.2693 21.3208 11.5991 21.2219 11.907 21.1119C12.2148 21.002 12.4787 20.881 12.6985 20.7491C13.6001 20.1334 14.2708 19.2649 14.7105 18.1434C15.1723 17 15.4032 15.6917 15.4032 14.2184C15.4032 13.053 15.2712 11.9975 15.0074 11.052C14.7435 10.1065 14.3367 9.30391 13.787 8.64425C13.1713 7.91862 12.3797 7.42387 11.4122 7.16C10.4667 6.89613 9.53216 6.7642 8.60863 6.7642H4.78257V21.6396H8.87249Z" fill="#FE0655"/>
<path d="M31.4508 26.1254C28.6362 26.1254 26.4703 25.3338 24.9531 23.7506C23.4359 22.1454 22.6773 19.9245 22.6773 17.088C22.6773 15.7247 22.8752 14.4933 23.271 13.3938C23.6888 12.2724 24.2605 11.3159 24.9861 10.5243C25.7337 9.73269 26.6462 9.139 27.7237 8.7432C28.8231 8.32541 30.0655 8.11652 31.4508 8.11652C32.8141 8.11652 34.0345 8.32541 35.1119 8.7432C36.2114 9.139 37.1349 9.73269 37.8825 10.5243C38.6521 11.3159 39.2349 12.2724 39.6306 13.3938C40.0484 14.4933 40.2573 15.7247 40.2573 17.088C40.2573 19.9465 39.4877 22.1674 37.9485 23.7506C36.4313 25.3338 34.2654 26.1254 31.4508 26.1254ZM31.4508 12.2724C30.0215 12.2724 28.9661 12.7342 28.2844 13.6577C27.6028 14.5812 27.2619 15.7356 27.2619 17.1209C27.2619 18.5282 27.6028 19.6936 28.2844 20.6172C28.9661 21.5407 30.0215 22.0025 31.4508 22.0025C32.8801 22.0025 33.9245 21.5407 34.5842 20.6172C35.2439 19.6936 35.5737 18.5282 35.5737 17.1209C35.5737 15.7356 35.2439 14.5812 34.5842 13.6577C33.9245 12.7342 32.8801 12.2724 31.4508 12.2724Z" fill="#FE0655"/>
<path d="M47.9272 10.8211C48.6089 9.98557 49.4554 9.33689 50.4669 8.87513C51.5004 8.39138 52.5339 8.13851 53.5674 8.11652C54.7987 8.09453 55.9422 8.31442 56.9976 8.77618C58.0531 9.21596 58.9326 9.96358 59.6363 11.019C60.208 11.7887 60.6258 12.6902 60.8896 13.7237C61.1535 14.7571 61.2854 15.8456 61.2854 16.989C61.2854 18.4183 61.1095 19.7156 60.7577 20.881C60.4279 22.0245 59.8562 23.0139 59.0426 23.8495C58.3609 24.5971 57.5253 25.1689 56.5359 25.5647C55.5464 25.9385 54.5569 26.1254 53.5674 26.1254C53.0836 26.1254 52.5998 26.0924 52.1161 26.0264C51.6323 25.9824 51.1486 25.8835 50.6648 25.7296C50.1811 25.5756 49.6973 25.3558 49.2136 25.0699C48.7518 24.784 48.312 24.3992 47.8942 23.9155V33.1178H43.2436V8.47933H47.6634L47.9272 10.8211ZM52.281 12.2724C51.5994 12.2724 50.9837 12.4043 50.434 12.6682C49.9062 12.9101 49.4555 13.2509 49.0816 13.6907C48.7078 14.1305 48.411 14.6362 48.1911 15.2079C47.9932 15.7796 47.8942 16.3953 47.8942 17.055C47.8722 18.5282 48.2571 19.7156 49.0487 20.6172C49.8622 21.4967 50.9617 21.9585 52.347 22.0025C53.0946 22.0025 53.7323 21.8815 54.26 21.6396C54.7877 21.3978 55.2165 21.0569 55.5464 20.6172C55.8982 20.1774 56.162 19.6607 56.338 19.067C56.5359 18.4733 56.6348 17.8246 56.6348 17.1209C56.6348 16.4393 56.5359 15.8016 56.338 15.2079C56.162 14.6142 55.8872 14.0975 55.5134 13.6577C55.1615 13.2179 54.7218 12.8771 54.194 12.6352C53.6663 12.3933 53.0286 12.2724 52.281 12.2724Z" fill="#FE0655"/>
<path d="M66.8495 0.398438C67.7071 0.398438 68.3998 0.651309 68.9275 1.15705C69.4552 1.6628 69.7191 2.33345 69.7191 3.16903C69.7191 4.04858 69.4552 4.74123 68.9275 5.24697C68.3998 5.73073 67.7071 5.9726 66.8495 5.9726C66.014 5.9726 65.3213 5.73073 64.7716 5.24697C64.2439 4.74123 63.98 4.04858 63.98 3.16903C63.98 2.33345 64.2439 1.6628 64.7716 1.15705C65.3213 0.651309 66.014 0.398438 66.8495 0.398438ZM69.1914 25.8615H64.5407V8.47933H69.1914V25.8615Z" fill="#FE0655"/>
<path d="M77.8183 10.6892C79.2256 8.99607 80.9627 8.13851 83.0296 8.11652C84.1511 8.09453 85.1406 8.28143 85.9981 8.67723C86.8557 9.05104 87.5483 9.56778 88.0761 10.2274C88.7137 10.9971 89.1535 11.8986 89.3954 12.9321C89.6373 13.9436 89.7582 15.076 89.7582 16.3293V25.8615H85.0746V16.6922C85.0746 16.0765 85.0086 15.4938 84.8767 14.944C84.7667 14.3723 84.5689 13.8886 84.283 13.4928C83.9971 13.075 83.6123 12.7672 83.1286 12.5693C82.6668 12.3714 82.1391 12.2724 81.5454 12.2724C80.7978 12.2944 80.1601 12.4593 79.6324 12.7672C79.1266 13.075 78.7418 13.4708 78.478 13.9545C78.2141 14.4163 78.0272 14.944 77.9172 15.5377C77.8293 16.1095 77.7853 16.6922 77.7853 17.2859V25.8615H73.1347V8.47933H77.5874L77.8183 10.6892Z" fill="#FE0655"/>
<path d="M106.062 24.0804C105.402 24.828 104.611 25.3558 103.687 25.6636C102.764 25.9714 101.763 26.1254 100.686 26.1254C99.6083 26.1254 98.5528 25.9605 97.5193 25.6306C96.5078 25.2788 95.6283 24.7181 94.8807 23.9485C94.0451 23.0689 93.4624 22.0574 93.1326 20.914C92.8027 19.7706 92.6378 18.5942 92.6378 17.3848C92.6378 14.5263 93.4294 12.2394 95.0126 10.5243C95.6943 9.77667 96.5738 9.19397 97.6513 8.77618C98.7507 8.3584 99.9271 8.16049 101.18 8.18248C101.994 8.1385 102.874 8.28143 103.819 8.61126C104.765 8.9411 105.578 9.49082 106.26 10.2604L106.755 8.47933H110.779V24.7731C110.779 25.4767 110.735 26.1693 110.647 26.851C110.581 27.5546 110.46 28.2253 110.284 28.863C110.108 29.5226 109.844 30.1493 109.492 30.743C109.096 31.4687 108.613 32.0843 108.041 32.5901C107.491 33.0958 106.876 33.5136 106.194 33.8434C105.512 34.1953 104.787 34.4481 104.017 34.6021C103.247 34.756 102.467 34.8329 101.675 34.8329C100.664 34.8329 99.6962 34.712 98.7727 34.4701C97.8492 34.2502 97.0026 33.8764 96.233 33.3487C95.4854 32.843 94.8587 32.1943 94.3529 31.4027C93.8692 30.6111 93.5503 29.6656 93.3964 28.5661H98.3439C98.4319 29.0939 98.7837 29.5666 99.3994 29.9844C100.015 30.4022 100.763 30.6111 101.642 30.6111C102.588 30.6111 103.357 30.4242 103.951 30.0504C104.567 29.6766 105.029 29.1818 105.336 28.5661C105.644 27.9504 105.842 27.2468 105.93 26.4552C106.018 25.6636 106.062 24.872 106.062 24.0804ZM101.741 22.0025C102.467 22.0025 103.104 21.8705 103.654 21.6067C104.226 21.3428 104.688 20.991 105.04 20.5512C105.391 20.0894 105.655 19.5617 105.831 18.968C106.007 18.3523 106.095 17.7036 106.095 17.022C106.095 15.6587 105.71 14.5373 104.941 13.6577C104.193 12.7562 103.115 12.2944 101.708 12.2724C100.983 12.2724 100.334 12.4043 99.7622 12.6682C99.2125 12.9321 98.7507 13.2839 98.3769 13.7237C98.0251 14.1634 97.7612 14.6802 97.5853 15.2739C97.4094 15.8676 97.3214 16.5053 97.3214 17.1869C97.3214 17.9125 97.4094 18.5722 97.5853 19.1659C97.7832 19.7376 98.069 20.2434 98.4429 20.6831C98.8167 21.1009 99.2784 21.4308 99.8282 21.6726C100.378 21.8925 101.016 22.0025 101.741 22.0025Z" fill="#FE0655"/>
</svg>
